<svg class="flowchart" version="1.1" xmlns="http://www.w3.org/2000/svg" xmlns:xlink="http://www.w3.org/1999/xlink" width="725.5750122070312" height="602" viewBox="0 0 725.5750122070312 602">  <style type="text/css">  .flowchart{font-size:14px;font-family:Times}  .arrow{stroke:#000;stroke-width:1px;marker-end:url(#arrow);fill:none}  .line{stroke:#000;stroke-width:1px;fill:none}  text{stroke:#000;stroke-width:0;text-anchor:middle}  .iotype{font-size:12px;font-style:italic}  .symbol{stroke:#000;stroke-width:1px;fill:#fff}  </style>   <defs>    <marker id="arrow" markerWidth="12" markerHeight="12" refX="0" refY="5" orient="auto" markerUnits="strokeWidth">      <path d="M0,0 L0,10 L10,5 z" fill="#000"></path>    </marker>  </defs><g transform="translate(83.79166412353516,0)"><g transform="translate(0,10)" class="function Main"><g class="block" transform="translate(0,20)">  <g class="start">    <ellipse class="symbol" cx="0" cy="0" rx="35" ry="20"></ellipse>    <text x="0" y="4">START</text>  </g></g><g class="block sequence" transform="translate(0,40)"><g class="block" transform="translate(0,0)"><line class="arrow" x1="0" y1="0" x2="0" y2="12"></line>  <g class="assign" transform="translate(-78.79166412353516,22)">    <rect class="symbol" width="157.5833282470703" height="36"></rect>    <line class="line" x1="5" y1="0" x2="5" y2="36"></line>    <line class="line" x1="0" y1="5" x2="157.5833282470703" y2="5"></line>    <text x="81.79166412353516" y="25">Integer N,N2,N3,N4,N5</text>  </g></g><g class="block" transform="translate(0,58)"><line class="arrow" x1="0" y1="0" x2="0" y2="12"></line>  <g class="assign" transform="translate(-40,22)">    <rect class="symbol" width="80" height="36"></rect>    <line class="line" x1="5" y1="0" x2="5" y2="36"></line>    <line class="line" x1="0" y1="5" x2="80" y2="5"></line>    <text x="43" y="25">String S</text>  </g></g><g class="block" transform="translate(0,116)"><line class="arrow" x1="0" y1="0" x2="0" y2="12"></line>  <g class="assign" transform="translate(-40.72500038146973,22)">    <rect class="symbol" width="81.45000076293945" height="36"></rect>    <line class="line" x1="5" y1="0" x2="5" y2="36"></line>    <line class="line" x1="0" y1="5" x2="81.45000076293945" y2="5"></line>    <text x="43.72500038146973" y="25">Boolean B</text>  </g></g><g class="block" transform="translate(0,174)"><line class="arrow" x1="0" y1="0" x2="0" y2="12"></line>  <g class="assign" transform="translate(-42.25833511352539,22)">    <rect class="symbol" width="84.51667022705078" height="36"></rect>    <line class="line" x1="5" y1="0" x2="5" y2="36"></line>    <line class="line" x1="0" y1="5" x2="84.51667022705078" y2="5"></line>    <text x="45.25833511352539" y="25">Real A[10]</text>  </g></g><g class="block" transform="translate(0,232)"><line class="arrow" x1="0" y1="0" x2="0" y2="12"></line>  <g class="input" transform="translate(-25,22)">    <polygon class="symbol" points="0,0 -20,36 50,36 70,0"></polygon>    <path class="line" d="M50,0 q0,15 13,13"></path>    <text x="25" y="23">N</text>    <text class="iotype" x="60" y="10">i</text>  </g></g><g class="block" transform="translate(0,290)"><line class="arrow" x1="0" y1="0" x2="0" y2="12"></line>  <g class="output" transform="translate(-47,22)">    <polygon class="symbol" points="0,0 -20,36 94,36 114,0"></polygon>    <path class="line" d="M94,0 q0,15 13,13"></path>    <text x="47" y="23">"Text line " &amp; N</text>    <text class="iotype" x="104" y="9">o</text>  </g></g><g class="block" transform="translate(0,348)"><line class="arrow" x1="0" y1="0" x2="0" y2="12"></line>  <g class="assign" transform="translate(-35,22)">    <rect class="symbol" width="70" height="36"></rect>    <text x="35" y="23">N=R</text>  </g></g><g class="block" transform="translate(0,406)"><line class="arrow" x1="0" y1="0" x2="0" y2="12"></line>  <g class="sub-program" transform="translate(-44.38333511352539,22)">    <rect class="symbol" width="88.76667022705078" height="36"></rect>    <line class="line" x1="5" y1="0" x2="5" y2="36"></line>    <line class="line" x1="83.76667022705078" y1="0" x2="83.76667022705078" y2="36"></line>    <text x="44.38333511352539" y="23">Selections()</text>  </g></g></g><g class="block" transform="translate(0,504)"><line class="arrow" x1="0" y1="0" x2="0" y2="12"></line>  <g class="end" transform="translate(0,42)">    <ellipse class="symbol" cx="0" cy="0" rx="35" ry="20"></ellipse>    <text x="0" y="4">END</text>  </g></g></g><g transform="translate(157.46666717529297,10)" class="function Selections"><g class="block" transform="translate(0,20)">  <g class="start">    <ellipse class="symbol" cx="0" cy="0" rx="39.733333587646484" ry="20"></ellipse>    <text x="0" y="4">Selections</text>  </g></g><g class="block sequence" transform="translate(0,40)"><g class="block" transform="translate(0,0)"><line class="arrow" x1="0" y1="0" x2="0" y2="12"></line>  <g class="selection" transform="translate(0,22)">    <g class="condition">      <polygon class="symbol" points="0,0 42.42499923706055,27 0,54 -42.42499923706055,27"></polygon><text x="0" y="32">condition</text>    </g>    <g class="arrow-right">      <polyline class="line" points="42.42499923706055,27 67.42499923706055,27 67.42499923706055,37"></polyline>      <text x="52.42499923706055" y="22">T</text>    </g>    <g class="true-path" transform="translate(67.42499923706055,37)"><g class="block sequence" transform="translate(0,0)"><g class="block" transform="translate(0,0)"><line class="arrow" x1="0" y1="0" x2="0" y2="12"></line>  <g class="other" transform="translate(-6.25,22)">    <text x="6.25" y="15">...</text>  </g></g></g></g>    <g class="arrow-left">      <polyline class="line" points="-42.42499923706055,27 -67.42499923706055,27 -67.42499923706055,37"></polyline>      <text x="-52.42499923706055" y="22">F</text>    </g>    <g class="false-path" transform="translate(-67.42499923706055,37)"><g class="block sequence" transform="translate(0,0)"><g class="block" transform="translate(0,0)"><line class="arrow" x1="0" y1="0" x2="0" y2="12"></line>  <g class="other" transform="translate(-6.25,22)">    <text x="6.25" y="15">...</text>  </g></g></g></g>    <g class="selection-close" transform="translate(0,87)">      <polyline class="line" points="67.42499923706055,0 67.42499923706055,25 4,25"></polyline>      <polyline class="line" points="-67.42499923706055,0 -67.42499923706055,25 -4,25"></polyline>      <circle class="symbol" cx="0" cy="25" r="4"></circle>    </g>  </g></g><g class="block" transform="translate(0,138)"><line class="arrow" x1="0" y1="0" x2="0" y2="12"></line>  <g class="selection" transform="translate(0,22)">    <g class="condition">      <polygon class="symbol" points="0,0 42.42499923706055,27 0,54 -42.42499923706055,27"></polygon><text x="0" y="32">condition</text>    </g>    <g class="arrow-right">      <polyline class="line" points="42.42499923706055,27 67.42499923706055,27 67.42499923706055,37"></polyline>      <text x="52.42499923706055" y="22">T</text>    </g>    <g class="true-path" transform="translate(67.42499923706055,37)"><g class="block sequence" transform="translate(0,0)"><g class="block" transform="translate(0,0)"><line class="arrow" x1="0" y1="0" x2="0" y2="12"></line>  <g class="other" transform="translate(-6.25,22)">    <text x="6.25" y="15">...</text>  </g></g></g></g>    <g class="arrow-left">      <polyline class="line" points="-42.42499923706055,27 -67.42499923706055,27 -67.42499923706055,37"></polyline>      <text x="-52.42499923706055" y="22">F</text>    </g>    <g class="false-path" transform="translate(-67.42499923706055,37)"></g><polyline class="line" points="-67.42499923706055,37 -67.42499923706055,92"></polyline>    <g class="selection-close" transform="translate(0,87)">      <polyline class="line" points="67.42499923706055,0 67.42499923706055,25 4,25"></polyline>      <polyline class="line" points="-67.42499923706055,0 -67.42499923706055,25 -4,25"></polyline>      <circle class="symbol" cx="0" cy="25" r="4"></circle>    </g>  </g></g><g class="block" transform="translate(0,276)"><line class="arrow" x1="0" y1="0" x2="0" y2="12"></line>  <g class="selection" transform="translate(0,22)">    <g class="condition">      <polygon class="symbol" points="0,0 42.42499923706055,27 0,54 -42.42499923706055,27"></polygon><text x="0" y="32">condition</text>    </g>    <g class="arrow-right">      <polyline class="line" points="42.42499923706055,27 67.42499923706055,27 67.42499923706055,37"></polyline>      <text x="52.42499923706055" y="22">T</text>    </g>    <g class="true-path" transform="translate(67.42499923706055,37)"></g>    <g class="arrow-left">      <polyline class="line" points="-42.42499923706055,27 -67.42499923706055,27 -67.42499923706055,37"></polyline>      <text x="-52.42499923706055" y="22">F</text>    </g>    <g class="false-path" transform="translate(-67.42499923706055,37)"><g class="block sequence" transform="translate(0,0)"><g class="block" transform="translate(0,0)"><line class="arrow" x1="0" y1="0" x2="0" y2="12"></line>  <g class="other" transform="translate(-6.25,22)">    <text x="6.25" y="15">...</text>  </g></g></g></g><polyline class="line" points="67.42499923706055,37 67.42499923706055,92"></polyline>    <g class="selection-close" transform="translate(0,87)">      <polyline class="line" points="67.42499923706055,0 67.42499923706055,25 4,25"></polyline>      <polyline class="line" points="-67.42499923706055,0 -67.42499923706055,25 -4,25"></polyline>      <circle class="symbol" cx="0" cy="25" r="4"></circle>    </g>  </g></g></g><g class="block" transform="translate(0,454)"><line class="arrow" x1="0" y1="0" x2="0" y2="12"></line>  <g class="end" transform="translate(0,42)">    <ellipse class="symbol" cx="0" cy="0" rx="38.983333587646484" ry="20"></ellipse>    <text x="0" y="4">RETURN </text>  </g></g></g><g transform="translate(310.21666717529297,10)" class="function Iteractions"><g class="block" transform="translate(0,20)">  <g class="start">    <ellipse class="symbol" cx="0" cy="0" rx="74.07499694824219" ry="20"></ellipse>    <text x="0" y="4">Iteractions(Integer P1)</text>  </g></g><g class="block sequence" transform="translate(0,40)"><g class="block" transform="translate(0,0)"><line class="arrow" x1="0" y1="0" x2="0" y2="12"></line>  <g class="preIteraction" transform="translate(0,22)">    <g class="condition">      <polygon class="symbol" points="0,0 30,0 45,20 30,40 -30,40 -45,20 -30,0"></polygon><text x="0" y="25">condition</text>    </g>    <g class="true-path" transform="translate(45,20)">       <polyline class="line" points="0,0 35,0 35,0"></polyline>       <text x="10" y="-5">T</text>       <g class="true-branch" transform="translate(35,0)"><g class="block sequence" transform="translate(0,0)"><g class="block" transform="translate(0,0)"><line class="arrow" x1="0" y1="0" x2="0" y2="12"></line>  <g class="other" transform="translate(-6.25,22)">    <text x="6.25" y="15">...</text>  </g></g></g>           <g class="true-close" transform="translate(0,50)">               <polyline class="arrow" points="0,0 0,15 -55,15 -55,0 -55,-18"></polyline>           </g>       </g>    </g>    <g class="false-path" transform="translate(0,40)">       <polyline class="line" points="0,0 0,35"></polyline>       <text x="-10" y="18">F</text>    </g>  </g></g><g class="block" transform="translate(0,97)"><line class="line" x1="0" y1="0" x2="0" y2="22"></line><circle class="symbol" cx="0" cy="22" r="4"></circle>  <g class="postIteraction" transform="translate(0,22)">    <g class="true-path" transform="translate(4,0)">       <polyline class="line" points="0,0 76,0"></polyline>       <text x="-17" y="58">T</text>       <g class="true-branch" transform="translate(76,0)"><g class="block sequence" transform="translate(0,0)"><g class="block" transform="translate(0,0)"><line class="arrow" x1="0" y1="0" x2="0" y2="12"></line>  <g class="other" transform="translate(-6.25,22)">    <text x="6.25" y="15">...</text>  </g></g></g>           <g class="true-close" transform="translate(0,50)">               <polyline class="arrow" points="0,0 0,35 -26,35"></polyline>           </g>       </g>    </g>    <g class="condition" transform="translate(0,65)">      <polygon class="symbol" points="0,0 30,0 45,20 30,40 -30,40 -45,20 -30,0"></polygon><text x="0" y="25">condition</text>       <text x="-12" y="55">F</text>       <polyline class="line" points="0,40 0,50"></polyline>    </g>    <polyline class="arrow" points="0,65 0,14"></polyline>  </g></g><g class="block" transform="translate(0,234)"><line class="arrow" x1="0" y1="0" x2="0" y2="12"></line>  <g class="preIteraction" transform="translate(0,22)">    <g class="condition">      <polygon class="symbol" points="0,0 30,0 45,20 30,40 -30,40 -45,20 -30,0"></polygon><text x="0" y="25">I=0 TO N</text>    </g>    <g class="true-path" transform="translate(45,20)">       <polyline class="line" points="0,0 35,0 35,0"></polyline>       <text x="10" y="-5">T</text>       <g class="true-branch" transform="translate(35,0)"><g class="block sequence" transform="translate(0,0)"><g class="block" transform="translate(0,0)"><line class="arrow" x1="0" y1="0" x2="0" y2="12"></line>  <g class="other" transform="translate(-6.25,22)">    <text x="6.25" y="15">...</text>  </g></g></g>           <g class="true-close" transform="translate(0,50)">               <polyline class="arrow" points="0,0 0,15 -55,15 -55,0 -55,-18"></polyline>           </g>       </g>    </g>    <g class="false-path" transform="translate(0,40)">       <polyline class="line" points="0,0 0,35"></polyline>       <text x="-10" y="18">F</text>    </g>  </g></g><g class="block" transform="translate(0,331)"><line class="arrow" x1="0" y1="0" x2="0" y2="12"></line>  <g class="preIteraction" transform="translate(0,22)">    <g class="condition">      <polygon class="symbol" points="0,0 30,0 45,20 30,40 -30,40 -45,20 -30,0"></polygon><text x="0" y="25">condition</text>    </g>    <g class="true-path" transform="translate(45,20)">       <polyline class="line" points="0,0 35,0 35,0"></polyline>       <text x="10" y="-5">T</text>       <g class="true-branch" transform="translate(35,0)"><g class="block" transform="translate(0,0)"><polyline class="line" points="0,0 0,36"></polyline></g>           <g class="true-close" transform="translate(0,36)">               <polyline class="arrow" points="0,0 0,15 -55,15 -55,0 -55,-4"></polyline>           </g>       </g>    </g>    <g class="false-path" transform="translate(0,40)">       <polyline class="line" points="0,0 0,21"></polyline>       <text x="-10" y="18">F</text>    </g>  </g></g></g><g class="block" transform="translate(0,454)"><line class="arrow" x1="0" y1="0" x2="0" y2="12"></line>  <g class="end" transform="translate(0,42)">    <ellipse class="symbol" cx="0" cy="0" rx="48.125" ry="20"></ellipse>    <text x="0" y="4">RETURN P1</text>  </g></g></g><g transform="translate(519.125,10)" class="function ComplexConditions"><g class="block" transform="translate(0,20)">  <g class="start">    <ellipse class="symbol" cx="0" cy="0" rx="117.65833282470703" ry="20"></ellipse>    <text x="0" y="4">ComplexConditions(Real P1,Real P2)</text>  </g></g><g class="block sequence" transform="translate(0,40)"><g class="block" transform="translate(0,0)"><line class="arrow" x1="0" y1="0" x2="0" y2="12"></line>  <g class="selection" transform="translate(0,22)">    <g class="condition">      <polygon class="symbol" points="0,0 74.05833435058594,40 0,80 -74.05833435058594,40"></polygon><text x="0" y="22"><tspan x="0" dy="1.1em">part1 and</tspan><tspan x="0" dy="1.1em">part2 or part3</tspan></text>    </g>    <g class="arrow-right">      <polyline class="line" points="74.05833435058594,40 99.05833435058594,40 99.05833435058594,50"></polyline>      <text x="84.05833435058594" y="35">T</text>    </g>    <g class="true-path" transform="translate(99.05833435058594,50)"><g class="block sequence" transform="translate(0,0)"><g class="block" transform="translate(0,0)"><line class="arrow" x1="0" y1="0" x2="0" y2="12"></line>  <g class="other" transform="translate(-6.25,22)">    <text x="6.25" y="15">...</text>  </g></g></g></g>    <g class="arrow-left">      <polyline class="line" points="-74.05833435058594,40 -99.05833435058594,40 -99.05833435058594,50"></polyline>      <text x="-84.05833435058594" y="35">F</text>    </g>    <g class="false-path" transform="translate(-99.05833435058594,50)"></g><polyline class="line" points="-99.05833435058594,50 -99.05833435058594,118"></polyline>    <g class="selection-close" transform="translate(0,100)">      <polyline class="line" points="99.05833435058594,0 99.05833435058594,25 4,25"></polyline>      <polyline class="line" points="-99.05833435058594,0 -99.05833435058594,25 -4,25"></polyline>      <circle class="symbol" cx="0" cy="25" r="4"></circle>    </g>  </g></g><g class="block" transform="translate(0,151)"><line class="arrow" x1="0" y1="0" x2="0" y2="12"></line>  <g class="preIteraction" transform="translate(0,22)">    <g class="condition">      <polygon class="symbol" points="0,0 51.44166564941406,0 66.44166564941406,45 51.44166564941406,90 -51.44166564941406,90 -66.44166564941406,45 -51.44166564941406,0"></polygon><text x="0" y="5"><tspan x="0" dy="1.1em">part1 &amp;&amp; (part2</tspan><tspan x="0" dy="1.1em">|| part3)</tspan><tspan x="0" dy="1.1em">&amp;&amp; (part4</tspan><tspan x="0" dy="1.1em">|| part5</tspan><tspan x="0" dy="1.1em">|| part6)</tspan></text>    </g>    <g class="true-path" transform="translate(66.44166564941406,45)">       <polyline class="line" points="0,0 35,0 35,23"></polyline>       <text x="10" y="-5">T</text>       <g class="true-branch" transform="translate(35,23)"><g class="block sequence" transform="translate(0,0)"><g class="block" transform="translate(0,0)"><line class="arrow" x1="0" y1="0" x2="0" y2="12"></line>  <g class="other" transform="translate(-6.25,22)">    <text x="6.25" y="15">...</text>  </g></g></g>           <g class="true-close" transform="translate(0,50)">               <polyline class="arrow" points="0,0 0,15 -76.44166564941406,15 -76.44166564941406,0 -76.44166564941406,-18"></polyline>           </g>       </g>    </g>    <g class="false-path" transform="translate(0,90)">       <polyline class="line" points="0,0 0,35"></polyline>       <text x="-10" y="18">F</text>    </g>  </g></g><g class="block" transform="translate(0,298)"><line class="line" x1="0" y1="0" x2="0" y2="22"></line><circle class="symbol" cx="0" cy="22" r="4"></circle>  <g class="postIteraction" transform="translate(0,22)">    <g class="true-path" transform="translate(4,0)">       <polyline class="line" points="0,0 97.44166564941406,0"></polyline>       <text x="-17" y="58">T</text>       <g class="true-branch" transform="translate(97.44166564941406,0)"><g class="block sequence" transform="translate(0,0)"><g class="block" transform="translate(0,0)"><line class="arrow" x1="0" y1="0" x2="0" y2="12"></line>  <g class="other" transform="translate(-6.25,22)">    <text x="6.25" y="15">...</text>  </g></g></g>           <g class="true-close" transform="translate(0,50)">               <polyline class="arrow" points="0,0 0,60 -26,60"></polyline>           </g>       </g>    </g>    <g class="condition" transform="translate(0,65)">      <polygon class="symbol" points="0,0 51.44166564941406,0 66.44166564941406,45 51.44166564941406,90 -51.44166564941406,90 -66.44166564941406,45 -51.44166564941406,0"></polygon><text x="0" y="5"><tspan x="0" dy="1.1em">part1 &amp;&amp; (part2</tspan><tspan x="0" dy="1.1em">|| part3)</tspan><tspan x="0" dy="1.1em">&amp;&amp; (part4</tspan><tspan x="0" dy="1.1em">|| part5</tspan><tspan x="0" dy="1.1em">|| part6)</tspan></text>       <text x="-12" y="105">F</text>       <polyline class="line" points="0,90 0,100"></polyline>    </g>    <polyline class="arrow" points="0,65 0,14"></polyline>  </g></g></g><g class="block" transform="translate(0,525)"><line class="arrow" x1="0" y1="0" x2="0" y2="12"></line>  <g class="end" transform="translate(0,42)">    <ellipse class="symbol" cx="0" cy="0" rx="48.125" ry="20"></ellipse>    <text x="0" y="4">RETURN P1</text>  </g></g></g></g></svg>